<?xml version="1.0" encoding="utf-8"?>
<svg version="1.1" xmlns:xlink="http://www.w3.org/1999/xlink" width="14px" height="14px" xmlns="http://www.w3.org/2000/svg">
  <g transform="matrix(1 0 0 1 -216 -166 )">
    <path d="M 10.91015625 7.99348958333333  C 11.0256076388889 7.87803819444444  11.0833333333333 7.74131944444444  11.0833333333333 7.58333333333333  L 11.0833333333333 6.41666666666667  C 11.0833333333333 6.25868055555555  11.0256076388889 6.12196180555555  10.91015625 6.00651041666667  C 10.7947048611111 5.89105902777778  10.6579861111111 5.83333333333333  10.5 5.83333333333333  L 8.16666666666667 5.83333333333333  L 8.16666666666667 3.5  C 8.16666666666667 3.34201388888889  8.10894097222222 3.20529513888889  7.99348958333333 3.08984375  C 7.87803819444445 2.97439236111111  7.74131944444445 2.91666666666667  7.58333333333333 2.91666666666667  L 6.41666666666667 2.91666666666667  C 6.25868055555556 2.91666666666667  6.12196180555556 2.97439236111111  6.00651041666667 3.08984375  C 5.89105902777778 3.20529513888889  5.83333333333333 3.34201388888889  5.83333333333333 3.5  L 5.83333333333333 5.83333333333333  L 3.5 5.83333333333333  C 3.34201388888889 5.83333333333333  3.20529513888889 5.89105902777778  3.08984375 6.00651041666667  C 2.97439236111111 6.12196180555555  2.91666666666667 6.25868055555555  2.91666666666667 6.41666666666667  L 2.91666666666667 7.58333333333333  C 2.91666666666667 7.74131944444444  2.97439236111111 7.87803819444444  3.08984375 7.99348958333333  C 3.20529513888889 8.10894097222222  3.34201388888889 8.16666666666667  3.5 8.16666666666667  L 5.83333333333333 8.16666666666667  L 5.83333333333333 10.5  C 5.83333333333333 10.6579861111111  5.89105902777778 10.7947048611111  6.00651041666667 10.91015625  C 6.12196180555556 11.0256076388889  6.25868055555556 11.0833333333333  6.41666666666667 11.0833333333333  L 7.58333333333333 11.0833333333333  C 7.74131944444445 11.0833333333333  7.87803819444445 11.0256076388889  7.99348958333333 10.91015625  C 8.10894097222222 10.7947048611111  8.16666666666667 10.6579861111111  8.16666666666667 10.5  L 8.16666666666667 8.16666666666667  L 10.5 8.16666666666667  C 10.6579861111111 8.16666666666667  10.7947048611111 8.10894097222222  10.91015625 7.99348958333333  Z M 13.0611979166667 3.486328125  C 13.6870659722222 4.55881076388889  14 5.73003472222222  14 7  C 14 8.26996527777778  13.6870659722222 9.44118923611111  13.0611979166667 10.513671875  C 12.4353298611111 11.5861545138889  11.5861545138889 12.4353298611111  10.513671875 13.0611979166667  C 9.44118923611111 13.6870659722222  8.26996527777778 14  7 14  C 5.73003472222222 14  4.55881076388889 13.6870659722222  3.486328125 13.0611979166667  C 2.41384548611111 12.4353298611111  1.56467013888889 11.5861545138889  0.938802083333333 10.513671875  C 0.312934027777778 9.44118923611111  0 8.26996527777778  0 7  C 0 5.73003472222222  0.312934027777778 4.55881076388889  0.938802083333333 3.486328125  C 1.56467013888889 2.41384548611111  2.41384548611111 1.56467013888889  3.486328125 0.938802083333333  C 4.55881076388889 0.312934027777777  5.73003472222222 0  7 0  C 8.26996527777778 0  9.44118923611111 0.312934027777777  10.513671875 0.938802083333333  C 11.5861545138889 1.56467013888889  12.4353298611111 2.41384548611111  13.0611979166667 3.486328125  Z " fill-rule="nonzero" fill="#666666" stroke="none" transform="matrix(1 0 0 1 216 166 )" />
  </g>
</svg>