<?xml version="1.0" encoding="utf-8"?>
<svg version="1.1" xmlns:xlink="http://www.w3.org/1999/xlink" width="12px" height="14px" xmlns="http://www.w3.org/2000/svg">
  <g transform="matrix(1 0 0 1 -125 -166 )">
    <path d="M 4.28693181818182 5.33203125  C 4.33806818181818 5.38671875  4.36363636363636 5.45659722222222  4.36363636363636 5.54166666666667  L 4.36363636363636 10.7916666666667  C 4.36363636363636 10.8767361111111  4.33806818181818 10.9466145833333  4.28693181818182 11.0013020833333  C 4.23579545454545 11.0559895833333  4.17045454545455 11.0833333333333  4.09090909090909 11.0833333333333  L 3.54545454545455 11.0833333333333  C 3.46590909090909 11.0833333333333  3.40056818181818 11.0559895833333  3.34943181818182 11.0013020833333  C 3.29829545454545 10.9466145833333  3.27272727272727 10.8767361111111  3.27272727272727 10.7916666666667  L 3.27272727272727 5.54166666666667  C 3.27272727272727 5.45659722222222  3.29829545454545 5.38671875  3.34943181818182 5.33203125  C 3.40056818181818 5.27734375  3.46590909090909 5.25  3.54545454545455 5.25  L 4.09090909090909 5.25  C 4.17045454545455 5.25  4.23579545454545 5.27734375  4.28693181818182 5.33203125  Z M 6.46875 5.33203125  C 6.51988636363636 5.38671875  6.54545454545455 5.45659722222222  6.54545454545455 5.54166666666667  L 6.54545454545455 10.7916666666667  C 6.54545454545455 10.8767361111111  6.51988636363636 10.9466145833333  6.46875 11.0013020833333  C 6.41761363636364 11.0559895833333  6.35227272727273 11.0833333333333  6.27272727272727 11.0833333333333  L 5.72727272727273 11.0833333333333  C 5.64772727272727 11.0833333333333  5.58238636363636 11.0559895833333  5.53125 11.0013020833333  C 5.48011363636364 10.9466145833333  5.45454545454545 10.8767361111111  5.45454545454545 10.7916666666667  L 5.45454545454545 5.54166666666667  C 5.45454545454545 5.45659722222222  5.48011363636364 5.38671875  5.53125 5.33203125  C 5.58238636363636 5.27734375  5.64772727272727 5.25  5.72727272727273 5.25  L 6.27272727272727 5.25  C 6.35227272727273 5.25  6.41761363636364 5.27734375  6.46875 5.33203125  Z M 8.65056818181818 5.33203125  C 8.70170454545455 5.38671875  8.72727272727273 5.45659722222222  8.72727272727273 5.54166666666667  L 8.72727272727273 10.7916666666667  C 8.72727272727273 10.8767361111111  8.70170454545455 10.9466145833333  8.65056818181818 11.0013020833333  C 8.59943181818182 11.0559895833333  8.53409090909091 11.0833333333333  8.45454545454546 11.0833333333333  L 7.90909090909091 11.0833333333333  C 7.82954545454546 11.0833333333333  7.76420454545455 11.0559895833333  7.71306818181818 11.0013020833333  C 7.66193181818182 10.9466145833333  7.63636363636364 10.8767361111111  7.63636363636364 10.7916666666667  L 7.63636363636364 5.54166666666667  C 7.63636363636364 5.45659722222222  7.66193181818182 5.38671875  7.71306818181818 5.33203125  C 7.76420454545455 5.27734375  7.82954545454546 5.25  7.90909090909091 5.25  L 8.45454545454546 5.25  C 8.53409090909091 5.25  8.59943181818182 5.27734375  8.65056818181818 5.33203125  Z M 9.75852272727273 12.509765625  C 9.79829545454546 12.3973524305556  9.81818181818182 12.2743055555556  9.81818181818182 12.140625  L 9.81818181818182 3.5  L 2.18181818181818 3.5  L 2.18181818181818 12.140625  C 2.18181818181818 12.2743055555556  2.20170454545455 12.3973524305556  2.24147727272727 12.509765625  C 2.28125 12.6221788194444  2.32244318181818 12.7042100694444  2.36505681818182 12.755859375  C 2.40767045454545 12.8075086805556  2.4375 12.8333333333333  2.45454545454545 12.8333333333333  L 9.54545454545455 12.8333333333333  C 9.5625 12.8333333333333  9.59232954545455 12.8075086805556  9.63494318181818 12.755859375  C 9.67755681818182 12.7042100694444  9.71875 12.6221788194444  9.75852272727273 12.509765625  Z M 4.50852272727273 1.26692708333333  L 4.09090909090909 2.33333333333333  L 7.90909090909091 2.33333333333333  L 7.5 1.26692708333333  C 7.46022727272727 1.21223958333333  7.41193181818182 1.17881944444444  7.35511363636364 1.16666666666667  L 4.65340909090909 1.16666666666667  C 4.59659090909091 1.17881944444444  4.54829545454546 1.21223958333333  4.50852272727273 1.26692708333333  Z M 11.9232954545455 2.41536458333333  C 11.9744318181818 2.47005208333333  12 2.53993055555555  12 2.625  L 12 3.20833333333333  C 12 3.29340277777778  11.9744318181818 3.36328125  11.9232954545455 3.41796875  C 11.8721590909091 3.47265625  11.8068181818182 3.5  11.7272727272727 3.5  L 10.9090909090909 3.5  L 10.9090909090909 12.140625  C 10.9090909090909 12.6449652777778  10.7755681818182 13.0809461805556  10.5085227272727 13.4485677083333  C 10.2414772727273 13.8161892361111  9.92045454545455 14  9.54545454545455 14  L 2.45454545454545 14  C 2.07954545454545 14  1.75852272727273 13.822265625  1.49147727272727 13.466796875  C 1.22443181818182 13.111328125  1.09090909090909 12.6814236111111  1.09090909090909 12.1770833333333  L 1.09090909090909 3.5  L 0.272727272727273 3.5  C 0.193181818181818 3.5  0.127840909090909 3.47265625  0.0767045454545455 3.41796875  C 0.0255681818181818 3.36328125  0 3.29340277777778  0 3.20833333333333  L 0 2.625  C 0 2.53993055555555  0.0255681818181818 2.47005208333333  0.0767045454545455 2.41536458333333  C 0.127840909090909 2.36067708333333  0.193181818181818 2.33333333333333  0.272727272727273 2.33333333333333  L 2.90625 2.33333333333333  L 3.50284090909091 0.811197916666667  C 3.58806818181818 0.586371527777777  3.74147727272727 0.394965277777777  3.96306818181818 0.236979166666667  C 4.18465909090909 0.0789930555555547  4.40909090909091 0  4.63636363636364 0  L 7.36363636363636 0  C 7.59090909090909 0  7.81534090909091 0.0789930555555547  8.03693181818182 0.236979166666667  C 8.25852272727273 0.394965277777777  8.41193181818182 0.586371527777777  8.49715909090909 0.811197916666667  L 9.09375 2.33333333333333  L 11.7272727272727 2.33333333333333  C 11.8068181818182 2.33333333333333  11.8721590909091 2.36067708333333  11.9232954545455 2.41536458333333  Z " fill-rule="nonzero" fill="#666666" stroke="none" transform="matrix(1 0 0 1 125 166 )" />
  </g>
</svg>