<?xml version="1.0" encoding="utf-8"?>
<svg version="1.1" xmlns:xlink="http://www.w3.org/1999/xlink" width="18px" height="14px" xmlns="http://www.w3.org/2000/svg">
  <g transform="matrix(1 0 0 1 -1399 -194 )">
    <path d="M 8.39461883408072 10.5  L 8.95964125560538 10.5  L 10.1300448430493 9.34659090909091  L 8.59641255605381 7.83522727272727  L 7.42600896860987 8.98863636363636  L 7.42600896860987 9.54545454545455  L 8.39461883408072 9.54545454545455  L 8.39461883408072 10.5  Z M 13.3890134529148 3.66903409090909  C 13.5033632286996 3.5563446969697  13.5067264573991 3.4469696969697  13.3991031390135 3.34090909090909  C 13.2914798206278 3.23484848484848  13.1804932735426 3.23816287878788  13.0661434977578 3.35085227272727  L 9.5347533632287 6.83096590909091  C 9.42040358744395 6.9436553030303  9.41704035874439 7.0530303030303  9.52466367713004 7.15909090909091  C 9.6322869955157 7.26515151515151  9.7432735426009 7.26183712121212  9.85762331838565 7.14914772727273  L 13.3890134529148 3.66903409090909  Z M 14.0044843049327 8.95880681818182  C 14.1390134529148 9.01183712121212  14.2062780269058 9.10795454545455  14.2062780269058 9.24715909090909  L 14.2062780269058 11.1363636363636  C 14.2062780269058 11.9251893939394  13.9220852017937 12.5996685606061  13.3536995515695 13.1598011363636  C 12.7853139013453 13.7199337121212  12.1008968609865 14  11.3004484304933 14  L 2.90582959641256 14  C 2.10538116591928 14  1.42096412556054 13.7199337121212  0.852578475336323 13.1598011363636  C 0.284192825112108 12.5996685606061  0 11.9251893939394  0 11.1363636363636  L 0 2.86363636363636  C 0 2.0748106060606  0.284192825112108 1.40033143939394  0.852578475336323 0.840198863636364  C 1.42096412556054 0.280066287878787  2.10538116591928 0  2.90582959641256 0  L 11.3004484304933 0  C 11.7242152466368 0  12.1177130044843 0.0828598484848477  12.4809417040359 0.248579545454545  C 12.5818385650224 0.29498106060606  12.6423766816143 0.371212121212121  12.6625560538117 0.477272727272727  C 12.682735426009 0.589962121212121  12.652466367713 0.686079545454545  12.5717488789238 0.765625  L 12.0773542600897 1.25284090909091  C 11.9831838565022 1.34564393939394  11.8755605381166 1.37215909090909  11.7544843049327 1.33238636363636  C 11.5997757847534 1.29261363636364  11.4484304932735 1.27272727272727  11.3004484304933 1.27272727272727  L 2.90582959641256 1.27272727272727  C 2.46188340807175 1.27272727272727  2.08183856502242 1.42850378787879  1.76569506726457 1.74005681818182  C 1.44955156950673 2.05160984848485  1.2914798206278 2.42613636363636  1.2914798206278 2.86363636363636  L 1.2914798206278 11.1363636363636  C 1.2914798206278 11.5738636363636  1.44955156950673 11.9483901515151  1.76569506726457 12.2599431818182  C 2.08183856502242 12.5714962121212  2.46188340807175 12.7272727272727  2.90582959641256 12.7272727272727  L 11.3004484304933 12.7272727272727  C 11.7443946188341 12.7272727272727  12.1244394618834 12.5714962121212  12.4405829596413 12.2599431818182  C 12.7567264573991 11.9483901515151  12.914798206278 11.5738636363636  12.914798206278 11.1363636363636  L 12.914798206278 9.88352272727273  C 12.914798206278 9.79734848484848  12.945067264574 9.72443181818182  13.0056053811659 9.66477272727273  L 13.6513452914798 9.02840909090909  C 13.7522421524664 8.92897727272727  13.8699551569507 8.90577651515152  14.0044843049327 8.95880681818182  Z M 6.45739910313901 8.59090909090909  L 13.237668161435 1.90909090909091  L 16.1434977578475 4.77272727272727  L 9.36322869955157 11.4545454545455  L 6.45739910313901 11.4545454545455  L 6.45739910313901 8.59090909090909  Z M 18 2.54545454545455  C 18 2.81060606060606  17.9058295964126 3.03598484848485  17.7174887892377 3.22159090909091  L 16.7892376681614 4.13636363636364  L 13.8834080717489 1.27272727272727  L 14.8116591928251 0.357954545454545  C 15 0.172348484848484  15.2286995515695 0.0795454545454553  15.4977578475336 0.0795454545454553  C 15.7668161434978 0.0795454545454553  15.9955156950673 0.172348484848484  16.1838565022422 0.357954545454545  L 17.7174887892377 1.86931818181818  C 17.9058295964126 2.05492424242424  18 2.28030303030303  18 2.54545454545455  Z " fill-rule="nonzero" fill="#999999" stroke="none" transform="matrix(1 0 0 1 1399 194 )" />
  </g>
</svg>