<?xml version="1.0" encoding="utf-8"?>
<svg version="1.1" xmlns:xlink="http://www.w3.org/1999/xlink" width="20px" height="15px" xmlns="http://www.w3.org/2000/svg">
  <g transform="matrix(1 0 0 1 -340 -23 )">
    <path d="M 11.4285714285714 12.2727272727273  L 11.4285714285714 13.6363636363636  L 18.5714285714286 13.6363636363636  L 18.5714285714286 12.2727272727273  L 11.4285714285714 12.2727272727273  Z M 7.14285714285714 7  L 7.14285714285714 8  L 18.5714285714286 8  L 18.5714285714286 7  L 7.14285714285714 7  Z M 14.2857142857143 1.36363636363636  L 14.2857142857143 2.72727272727273  L 18.5714285714286 2.72727272727273  L 18.5714285714286 1.36363636363636  L 14.2857142857143 1.36363636363636  Z M 19.7879464285714 11.1115056818182  C 19.9293154761905 11.2464488636364  20 11.40625  20 11.5909090909091  L 20 14.3181818181818  C 20 14.5028409090909  19.9293154761905 14.6626420454545  19.7879464285714 14.7975852272727  C 19.6465773809524 14.9325284090909  19.4791666666667 15  19.2857142857143 15  L 0.714285714285714 15  C 0.520833333333333 15  0.353422619047619 14.9325284090909  0.212053571428571 14.7975852272727  C 0.0706845238095238 14.6626420454545  0 14.5028409090909  0 14.3181818181818  L 0 11.5909090909091  C 0 11.40625  0.0706845238095238 11.2464488636364  0.212053571428571 11.1115056818182  C 0.353422619047619 10.9765625  0.520833333333333 10.9090909090909  0.714285714285714 11  L 19.2857142857143 11  C 19.4791666666667 10.9090909090909  19.6465773809524 10.9765625  19.7879464285714 11.1115056818182  Z M 19.7879464285714 5.65696022727273  C 19.9293154761905 5.79190340909091  20 5.95170454545454  20 6.13636363636364  L 20 8.86363636363636  C 20 9.04829545454545  19.9293154761905 9.20809659090909  19.7879464285714 9.34303977272727  C 19.6465773809524 9.47798295454545  19.4791666666667 9.54545454545455  19.2857142857143 9.54545454545455  L 0.714285714285714 9.54545454545455  C 0.520833333333333 9.54545454545455  0.353422619047619 9.47798295454545  0.212053571428571 9.34303977272727  C 0.0706845238095238 9.20809659090909  0 9.04829545454545  0 8.86363636363636  L 0 6.13636363636364  C 0 5.95170454545454  0.0706845238095238 5.79190340909091  0.212053571428571 5.65696022727273  C 0.353422619047619 5.52201704545454  0.520833333333333 5.45454545454546  0.714285714285714 5.45454545454546  L 19.2857142857143 5.45454545454546  C 19.4791666666667 5.45454545454546  19.6465773809524 5.52201704545454  19.7879464285714 5.65696022727273  Z M 19.7879464285714 0.202414772727273  C 19.9293154761905 0.337357954545452  20 0.49715909090909  20 0.681818181818181  L 20 3.40909090909091  C 20 3.59375  19.9293154761905 3.75355113636363  19.7879464285714 3.88849431818182  C 19.6465773809524 4.0234375  19.4791666666667 4.09090909090909  19.2857142857143 4  L 0.714285714285714 4  C 0.520833333333333 4.09090909090909  0.353422619047619 4.0234375  0.212053571428571 3.88849431818182  C 0.0706845238095238 3.75355113636363  0 3.59375  0 3.40909090909091  L 0 0.681818181818181  C 0 0.49715909090909  0.0706845238095238 0.337357954545452  0.212053571428571 0.202414772727273  C 0.353422619047619 0.0674715909090895  0.520833333333333 0  0.714285714285714 0  L 19.2857142857143 0  C 19.4791666666667 0  19.6465773809524 0.0674715909090895  19.7879464285714 0.202414772727273  Z " fill-rule="nonzero" fill="#999999" stroke="none" transform="matrix(1 0 0 1 340 23 )" />
  </g>
</svg>