<?xml version="1.0" encoding="utf-8"?>
<svg version="1.1" xmlns:xlink="http://www.w3.org/1999/xlink" width="70px" height="40px" xmlns="http://www.w3.org/2000/svg">
  <g transform="matrix(1 0 0 1 -42 -237 )">
    <path d="M 42 237  L 112 237  L 112 277  L 42 277  L 42 237  " fill-rule="nonzero" fill="#cccccc" stroke="none" />
    <path d="M 45 240  L 109 240  L 109 274  L 45 274  L 45 240  " fill-rule="nonzero" fill="#ffffff" stroke="none" />
    <path d="M 81.4 249  C 79.72 249  78.4 247.68  78.4 246  C 78.4 244.32  79.72 243  81.4 243  C 83.08 243  84.4 244.32  84.4 246  C 84.4 247.68  83.08 249  81.4 249  " fill-rule="nonzero" fill="#cccccc" stroke="none" />
    <path d="M 46 273  L 46 255.4  L 61.5 247.4  L 83.2 262.028571428571  L 95.6 252.2  L 108 262.028571428571  L 108 273  L 46 273  " fill-rule="nonzero" fill="#169bd5" stroke="none" />
  </g>
</svg>