<?xml version="1.0" encoding="utf-8"?>
<svg version="1.1" xmlns:xlink="http://www.w3.org/1999/xlink" width="14px" height="14px" xmlns="http://www.w3.org/2000/svg">
  <g transform="matrix(1 0 0 1 -101 -166 )">
    <path d="M 5.53321976149915 11.0703125  C 5.5809199318569 11.1171875  5.60477001703577 11.1770833333333  5.60477001703577 11.25  C 5.60477001703577 11.3125  5.57826992239258 11.375  5.52526973310619 11.4375  L 2.98921067575241 13.9296875  C 2.93621048646602 13.9765625  2.87526026878667 14  2.80636002271437 14  C 2.7427597955707 14  2.68180957789135 13.9765625  2.62350936967632 13.9296875  L 0.0795002839295855 11.4296875  C 0 11.3463541666667  -0.0185500662502366 11.2552083333333  0.0238500851788756 11.15625  C 0.0662502366079879 11.0520833333333  0.145750520537573 11  0.262350936967632 11  L 2 11  L 2 0.250000000000001  C 1.78875638841567 0.177083333333332  1.81260647359455 0.1171875  1.8603066439523 0.0703124999999996  C 1.90800681431005 0.0234374999999993  1.9689570319894 0  2.04315729699035 0  L 3.56956274843839 0  C 3.64376301343933 0  3.70471323111868 0.0234374999999993  3.75241340147643 0.0703124999999996  C 3.80011357183419 0.1171875  3.82396365701306 0.177083333333332  4 0.250000000000001  L 4 11  L 5.3503691084611 11  C 5.42456937346205 11  5.4855195911414 11.0234375  5.53321976149915 11.0703125  Z M 13.9284497444634 12.0703125  C 13.9761499148211 12.1171875  14 12.1770833333333  14 12.25  L 14 13.75  C 14 13.8229166666667  13.9761499148211 13.8828125  13.9284497444634 13.9296875  C 13.8807495741056 13.9765625  13.8197993564263 14  13.7455990914253 14  L 7.13117546848382 14  C 7.05697520348287 14  6.99602498580352 13.9765625  6.94832481544577 13.9296875  C 6.90062464508802 13.8828125  6.87677455990914 13.8229166666667  6.87677455990914 13.75  L 6.87677455990914 12.25  C 6.87677455990914 12.1770833333333  6.90062464508802 12.1171875  6.94832481544577 12.0703125  C 6.99602498580352 12.0234375  7.05697520348287 12  7.13117546848382 12  L 13.7455990914253 12  C 13.8197993564263 12  13.8807495741056 12.0234375  13.9284497444634 12.0703125  Z M 12.4020442930153 8.0703125  C 12.4497444633731 8.1171875  12.473594548552 8.17708333333333  12.473594548552 8.25  L 12.473594548552 9.75  C 12.473594548552 9.82291666666666  12.4497444633731 9.8828125  12.4020442930153 9.9296875  C 12.3543441226576 9.9765625  12.2933939049782 10  12.2191936399773 10  L 7.13117546848382 10  C 7.05697520348287 10  6.99602498580352 9.9765625  6.94832481544577 9.9296875  C 6.90062464508802 9.8828125  6.87677455990914 9.82291666666666  6.87677455990914 9.75  L 6.87677455990914 8.25  C 6.87677455990914 8.17708333333333  6.90062464508802 8.1171875  6.94832481544577 8.0703125  C 6.99602498580352 8.0234375  7.05697520348287 8  7.13117546848382 8  L 12.2191936399773 8  C 12.2933939049782 8  12.3543441226576 8.0234375  12.4020442930153 8.0703125  Z M 10.8756388415673 4.0703125  C 10.923339011925 4.1171875  10.9471890971039 4.17708333333333  10.9471890971039 4.25  L 10.9471890971039 5.75  C 10.9471890971039 5.82291666666667  10.923339011925 5.8828125  10.8756388415673 5.9296875  C 10.8279386712095 5.9765625  10.7669884535302 6  10.6927881885292 6  L 7.13117546848382 6  C 7.05697520348287 6  6.99602498580352 5.9765625  6.94832481544577 5.9296875  C 6.90062464508802 5.8828125  6.87677455990914 5.82291666666667  6.87677455990914 5.75  L 6.87677455990914 4.25  C 6.87677455990914 4.17708333333333  6.90062464508802 4.1171875  6.94832481544577 4.0703125  C 6.99602498580352 4.0234375  7.05697520348287 4  7.13117546848382 4  L 10.6927881885292 4  C 10.7669884535302 4  10.8279386712095 4.0234375  10.8756388415673 4.0703125  Z M 9.34923339011925 0.0703124999999996  C 9.396933560477 0.1171875  9.42078364565588 0.177083333333332  9.42078364565588 0.250000000000001  L 9.42078364565588 1.75  C 9.42078364565588 1.82291666666667  9.396933560477 1.8828125  9.34923339011925 1.9296875  C 9.3015332197615 1.9765625  9.24058300208215 2  9.1663827370812 2  L 7.13117546848382 2  C 7.05697520348287 2  6.99602498580352 1.9765625  6.94832481544577 1.9296875  C 6.90062464508802 1.8828125  6.87677455990914 1.82291666666667  6.87677455990914 1.75  L 6.87677455990914 0.250000000000001  C 6.87677455990914 0.177083333333332  6.90062464508802 0.1171875  6.94832481544577 0.0703124999999996  C 6.99602498580352 0.0234374999999993  7.05697520348287 0  7.13117546848382 0  L 9.1663827370812 0  C 9.24058300208215 0  9.3015332197615 0.0234374999999993  9.34923339011925 0.0703124999999996  Z " fill-rule="nonzero" fill="#666666" stroke="none" transform="matrix(1 0 0 1 101 166 )" />
  </g>
</svg>