<?xml version="1.0" standalone="no"?><!DOCTYPE svg PUBLIC "-//W3C//DTD SVG 1.1//EN" "http://www.w3.org/Graphics/SVG/1.1/DTD/svg11.dtd"><svg t="1666752223039" class="icon" viewBox="0 0 1260 1024" version="1.1" xmlns="http://www.w3.org/2000/svg" p-id="7792" xmlns:xlink="http://www.w3.org/1999/xlink" width="246.09375" height="200"><path d="M236.353813 472.572593H58.846546c-52.478061 0-73.811338-31.324812-47.617315-69.670702L267.498597 28.714411a54.008296 54.008296 0 0 1 95.23463 0l256.269366 374.18748c26.194024 38.255877 4.680719 69.670702-47.617315 69.670702H393.878011v511.188526a39.876126 39.876126 0 0 1-39.786112 40.146167h-77.951974a39.336043 39.336043 0 0 1-39.786112-40.146167z m433.236551 393.810495a38.975987 38.975987 0 0 0-39.426056 39.786112v78.041988a39.966139 39.966139 0 0 0 39.426056 39.786112h551.244679a38.975987 38.975987 0 0 0 39.426056-39.876126v-78.041988a39.966139 39.966139 0 0 0-39.426056-39.786112zM826.394451 472.572593a38.615932 38.615932 0 0 0-38.705945 39.786112v78.041988A39.606084 39.606084 0 0 0 826.394451 630.096791h395.160702a38.615932 38.615932 0 0 0 38.705946-39.786111v-77.951975a39.606084 39.606084 0 0 0-38.705946-39.786112zM983.828635 78.762099a38.615932 38.615932 0 0 0-38.615932 39.786112v78.041988a38.975987 38.975987 0 0 0 38.615932 39.786112h237.816532A38.615932 38.615932 0 0 0 1260.261099 196.500185v-77.951974a38.975987 38.975987 0 0 0-38.615932-39.786112z" p-id="7793"></path></svg>