<?xml version="1.0" encoding="utf-8"?>
<svg version="1.1" xmlns:xlink="http://www.w3.org/1999/xlink" width="23px" height="22px" xmlns="http://www.w3.org/2000/svg">
  <g transform="matrix(1 0 0 1 -953 -442 )">
    <path d="M 17.4296875 19.97875  C 17.6047676282051 19.8045833333333  17.6923076923077 19.5983333333333  17.6923076923077 19.36  C 17.6923076923077 19.1216666666667  17.6047676282051 18.9154166666667  17.4296875 18.74125  C 17.2546073717949 18.5670833333333  17.0472756410256 18.48  16.8076923076923 18.48  C 16.568108974359 18.48  16.3607772435897 18.5670833333333  16.1856971153846 18.74125  C 16.0106169871795 18.9154166666667  15.9230769230769 19.1216666666667  15.9230769230769 19.36  C 15.9230769230769 19.5983333333333  16.0106169871795 19.8045833333333  16.1856971153846 19.97875  C 16.3607772435897 20.1529166666667  16.568108974359 20.24  16.8076923076923 20.24  C 17.0472756410256 20.24  17.2546073717949 20.1529166666667  17.4296875 19.97875  Z M 20.9681490384615 19.97875  C 21.1432291666667 19.8045833333333  21.2307692307692 19.5983333333333  21.2307692307692 19.36  C 21.2307692307692 19.1216666666667  21.1432291666667 18.9154166666667  20.9681490384615 18.74125  C 20.7930689102564 18.5670833333333  20.5857371794872 18.48  20.3461538461538 18.48  C 20.1065705128205 18.48  19.8992387820513 18.5670833333333  19.7241586538462 18.74125  C 19.549078525641 18.9154166666667  19.4615384615385 19.1216666666667  19.4615384615385 19.36  C 19.4615384615385 19.5983333333333  19.549078525641 19.8045833333333  19.7241586538462 19.97875  C 19.8992387820513 20.1529166666667  20.1065705128205 20.24  20.3461538461538 20.24  C 20.5857371794872 20.24  20.7930689102564 20.1529166666667  20.9681490384615 19.97875  Z M 22.6129807692308 15.345  C 22.8709935897436 15.6016666666667  23 15.9133333333333  23 16.28  L 23 20.68  C 23 21.0466666666667  22.8709935897436 21.3583333333333  22.6129807692308 21.615  C 22.354967948718 21.8716666666667  22.0416666666667 22  21.6730769230769 22  L 1.32692307692308 22  C 0.958333333333333 22  0.645032051282051 21.8716666666667  0.387019230769231 21.615  C 0.12900641025641 21.3583333333333  0 21.0466666666667  0 20.68  L 0 16.28  C 0 15.9133333333333  0.12900641025641 15.6016666666667  0.387019230769231 15.345  C 0.645032051282051 15.0883333333333  0.958333333333333 14.96  1.32692307692308 14.96  L 7.22896634615385 14.96  C 7.42247596153846 15.4733333333333  7.74729567307692 15.895  8.20342548076923 16.225  C 8.65955528846154 16.555  9.16866987179487 16.72  9.73076923076923 16.72  L 13.2692307692308 16.72  C 13.8313301282051 16.72  14.3404447115385 16.555  14.7965745192308 16.225  C 15.2527043269231 15.895  15.5775240384615 15.4733333333333  15.7710336538462 14.96  L 21.6730769230769 14.96  C 22.0416666666667 14.96  22.354967948718 15.0883333333333  22.6129807692308 15.345  Z M 18.3143028846154 6.42125  C 18.5999599358974 6.69625  18.6644631410256 7.0125  18.5078125 7.37  C 18.3511618589744 7.73666666666666  18.0793269230769 7.92  17.6923076923077 7.92  L 14.1538461538462 7.92  L 14.1538461538462 14.08  C 14.1538461538462 14.3183333333333  14.0663060897436 14.5245833333333  13.8912259615385 14.69875  C 13.7161458333333 14.8729166666667  13.5088141025641 14.96  13.2692307692308 14.96  L 9.73076923076923 14.96  C 9.4911858974359 14.96  9.28385416666667 14.8729166666667  9.10877403846154 14.69875  C 8.93369391025641 14.5245833333333  8.84615384615385 14.3183333333333  8.84615384615385 14.08  L 8.84615384615385 7.92  L 5.30769230769231 7.92  C 4.92067307692308 7.92  4.64883814102564 7.73666666666666  4.4921875 7.37  C 4.33553685897436 7.0125  4.40004006410256 6.69625  4.68569711538462 6.42125  L 10.8780048076923 0.261249999999999  C 11.0438701923077 0.0870833333333323  11.2512019230769 0  11.5 0  C 11.7487980769231 0  11.9561298076923 0.0870833333333323  12.1219951923077 0.261249999999999  L 18.3143028846154 6.42125  Z " fill-rule="nonzero" fill="#02a7f0" stroke="none" transform="matrix(1 0 0 1 953 442 )" />
  </g>
</svg>